<?xml version="1.0" standalone="no"?>
<!DOCTYPE svg PUBLIC "-//W3C//DTD SVG 20010904//EN"
 "http://www.w3.org/TR/2001/REC-SVG-20010904/DTD/svg10.dtd">
<svg version="1.0" xmlns="http://www.w3.org/2000/svg"
 width="200.000000pt" height="50.000000pt" viewBox="0 0 200.000000 50.000000"
 preserveAspectRatio="xMidYMid meet">

<g transform="translate(0.000000,50.000000) scale(0.100000,-0.100000)"
fill="#000000" stroke="none">
<path d="M708 413 c7 -3 16 -2 19 1 4 3 -2 6 -13 5 -11 0 -14 -3 -6 -6z"/>
<path d="M786 386 c28 -13 54 -28 58 -34 14 -23 -68 -34 -304 -41 -252 -8
-285 -14 -328 -53 -43 -41 -22 -93 54 -131 27 -14 175 -47 210 -47 10 0 14 13
14 46 l0 46 -49 -7 c-59 -8 -152 9 -183 34 l-22 18 26 17 c45 29 88 37 297 52
250 17 312 31 298 68 -7 17 -80 55 -107 56 -8 0 8 -11 36 -24z"/>
<path d="M600 119 c0 -51 4 -78 10 -74 6 3 10 40 10 81 0 43 -4 74 -10 74 -6
0 -10 -34 -10 -81z"/>
<path d="M640 120 c0 -47 4 -80 10 -80 6 0 10 33 10 80 0 47 -4 80 -10 80 -6
0 -10 -33 -10 -80z"/>
<path d="M520 120 c0 -45 4 -69 10 -65 6 3 10 33 10 65 0 32 -4 62 -10 65 -6
4 -10 -20 -10 -65z"/>
<path d="M560 120 c0 -40 4 -70 10 -70 6 0 10 30 10 70 0 40 -4 70 -10 70 -6
0 -10 -30 -10 -70z"/>
<path d="M670 120 l0 -71 53 7 c28 4 53 8 55 9 1 1 -5 15 -13 32 -11 22 -13
38 -6 56 8 21 7 26 -12 31 -12 3 -34 6 -49 6 -28 0 -28 0 -28 -70z"/>
<path d="M774 154 c-4 -14 -2 -35 4 -47 9 -19 11 -15 11 26 1 52 -5 61 -15 21z"/>
</g>
</svg>
